<svg width="22" height="24" viewBox="0 0 64 64" fill="none" xmlns="http://www.w3.org/2000/svg">
<path fill-rule="evenodd" clip-rule="evenodd" d="M5 19C5 16.7909 6.79086 15 9 15H36.2143C38.4234 15 40.2143 16.7909 40.2143 19V39.5714C40.2143 41.7806 38.4234 43.5714 36.2143 43.5714H25.8635C25.9304 43.7507 26.0155 43.9237 26.1178 44.0874L28.5632 48H16.6511L19.0965 44.0874C19.1988 43.9237 19.2838 43.7507 19.3508 43.5714H9C6.79086 43.5714 5 41.7806 5 39.5714V19ZM36.2143 41.5714C37.3189 41.5714 38.2143 40.676 38.2143 39.5714V38.2571H7V39.5714C7 40.676 7.89543 41.5714 9 41.5714H36.2143ZM7 36.2571H38.2143V19C38.2143 17.8954 37.3189 17 36.2143 17H9C7.89543 17 7 17.8954 7 19V36.2571ZM21.4273 43.5714C21.3104 44.1274 21.0963 44.6612 20.7925 45.1474L20.2596 46H24.9547L24.4218 45.1474C24.1179 44.6612 23.9039 44.1274 23.787 43.5714H21.4273Z" fill="black"/>
<path fill-rule="evenodd" clip-rule="evenodd" d="M22.9762 39.381C22.8447 39.381 22.7381 39.4876 22.7381 39.619C22.7381 39.7505 22.8447 39.8571 22.9762 39.8571C23.1077 39.8571 23.2143 39.7505 23.2143 39.619C23.2143 39.4876 23.1077 39.381 22.9762 39.381ZM21.7381 39.619C21.7381 38.9353 22.2924 38.381 22.9762 38.381C23.66 38.381 24.2143 38.9353 24.2143 39.619C24.2143 40.3028 23.66 40.8571 22.9762 40.8571C22.2924 40.8571 21.7381 40.3028 21.7381 39.619Z" fill="black"/>
<path fill-rule="evenodd" clip-rule="evenodd" d="M41 17C41 15.8954 41.8954 15 43 15H58C59.1046 15 60 15.8954 60 17V46C60 47.1046 59.1046 48 58 48H43C41.8954 48 41 47.1046 41 46V17ZM58 17H43V21H58V17ZM58 23H43V46H58V23Z" fill="black"/>
<path fill-rule="evenodd" clip-rule="evenodd" d="M44 28C44 27.4477 44.4477 27 45 27H52C52.5523 27 53 27.4477 53 28C53 28.5523 52.5523 29 52 29H45C44.4477 29 44 28.5523 44 28Z" fill="black"/>
<path fill-rule="evenodd" clip-rule="evenodd" d="M44 31C44 30.4477 44.4477 30 45 30H52C52.5523 30 53 30.4477 53 31C53 31.5523 52.5523 32 52 32H45C44.4477 32 44 31.5523 44 31Z" fill="black"/>
<path fill-rule="evenodd" clip-rule="evenodd" d="M44 34C44 33.4477 44.4477 33 45 33H52C52.5523 33 53 33.4477 53 34C53 34.5523 52.5523 35 52 35H45C44.4477 35 44 34.5523 44 34Z" fill="black"/>
</svg>
