<svg width="22" height="24" viewBox="0 0 64 64" fill="none" xmlns="http://www.w3.org/2000/svg">
<path fill-rule="evenodd" clip-rule="evenodd" d="M45.4822 30.7381C38.7747 21.683 25.2253 21.683 18.5178 30.7381L16.9107 29.5476C24.4177 19.4131 39.5823 19.4131 47.0893 29.5476L45.4822 30.7381Z" fill="#5B59AA"/>
<path fill-rule="evenodd" clip-rule="evenodd" d="M41.1122 38.4603C37.2825 31.0743 26.7175 31.0743 22.8878 38.4603L21.1122 37.5397C25.6883 28.7145 38.3117 28.7145 42.8878 37.5397L41.1122 38.4603Z" fill="#5B59AA"/>
<path fill-rule="evenodd" clip-rule="evenodd" d="M51.3059 23.0055C40.5318 12.6163 23.4681 12.6163 12.6941 23.0055L11.3059 21.5659C22.8546 10.4295 41.1454 10.4295 52.6941 21.5659L51.3059 23.0055Z" fill="#5B59AA"/>
<path d="M37.7143 46.5714C37.7143 49.7273 35.1559 52.2857 32 52.2857C28.8441 52.2857 26.2857 49.7273 26.2857 46.5714C26.2857 43.4155 28.8441 40.8571 32 40.8571C35.1559 40.8571 37.7143 43.4155 37.7143 46.5714Z" fill="#5B59AA"/>
</svg>
